<svg height="700pt" preserveAspectRatio="xMidYMid meet" viewBox="0 0 700 700" width="700pt" xmlns="http://www.w3.org/2000/svg"><g transform="matrix(.1 0 0 -.1 0 700)"><path d="m1438 6564c-2-1-21-4-44-7-173-24-321-161-362-336-14-57-8-172 11-234 34-109 125-208 237-260 85-39 207-48 295-22 274 79 401 387 263 634-51 91-145 170-238 200-34 10-157 30-162 25z"/><path d="m2777 6564c-1-1-24-4-52-7-96-10-155-34-231-94-126-100-185-275-148-436 36-154 139-265 294-317 64-22 75-22 625-22 308-1 576 2 595 5 139 24 266 119 324 241 116 247-8 529-268 608-66 20-91 21-603 22-294 0-535 0-536 0z"/><path d="m2378 5239c-107-25-238-126-285-221-45-90-60-207-38-311 11-53 53-132 95-180 55-63 112-101 191-128l64-23 1220-1c895-1 1235 2 1277 11 109 22 216 95 279 190 55 83 79 213 60 319-30 167-176 314-340 345-68 13-2469 12-2523-1z"/><path d="m3396 3923c-75-17-148-59-207-118-138-137-165-363-64-530 63-103 176-183 292-204 66-13 1126-11 1188 2 171 34 301 160 340 330 51 219-66 430-285 513-40 16-105 18-625 19-458 2-592-1-639-12z"/><path d="m5735 3926c-167-39-301-180-331-349-42-232 117-464 346-505 357-65 633 297 474 623-54 109-174 206-289 231-46 11-154 10-200 0z"/><path d="m2386 2613c-30-7-76-22-103-35-57-26-162-127-191-184-64-125-64-280 0-408 53-105 160-190 283-222 77-21 586-19 657 2 75 23 123 49 175 97 252 233 166 629-162 742-42 15-93 18-327 19-190 1-294-2-332-11z"/><path d="m4163 2619c-107-14-241-99-300-192-84-134-92-302-21-442 55-107 176-198 297-224 86-18 577-14 644 6 220 64 352 276 313 503-12 66-59 158-108 212-64 70-126 105-238 135-26 7-533 9-587 2z"/><path d="m1415 1309c-170-18-320-137-371-296-19-60-24-178-11-243 33-156 198-306 359-326 65-9 2407-9 2464-1 289 42 454 356 328 624-33 70-122 162-190 196-101 50-76 49-1337 51-650 0-1209-2-1242-5z"/></g></svg>