<svg xmlns="http://www.w3.org/2000/svg" width="128" height="128" fill="none"><rect width="45.333" height="16" x="24" y="104" fill="#8964E8" rx="8"/><rect width="16" height="16" x="77.334" y="104" fill="#8964E8" rx="8"/><rect width="58.667" height="16" x="48" y="80" fill="#17B877" rx="8"/><rect width="16" height="16" x="106.666" y="56" fill="#FFA23E" rx="8"/><rect width="61.333" height="16" x="37.334" y="56" fill="#FFA23E" rx="8"/><rect width="29.333" height="16" x="45.331" y="32.001" fill="#25A6E9" rx="8"/><rect width="16" height="16" x="21.334" y="32" fill="#25A6E9" rx="8"/><rect width="66.667" height="16" x="8" y="8" fill="#8964E8" rx="8"/><path fill="url(#a)" d="M100 4c0 13.255-10.745 24-24 24 13.255 0 24 10.745 24 24 0-13.255 10.745-24 24-24-13.255 0-24-10.745-24-24Z"/><defs><radialGradient id="a" cx="0" cy="0" r="1" gradientTransform="matrix(30.00002 -26.00003 25.50379 29.42743 90 38)" gradientUnits="userSpaceOnUse"><stop stop-color="#25A6E9"/><stop offset=".547" stop-color="#8964E8"/><stop offset="1" stop-color="#FFA23E"/></radialGradient></defs></svg>